<?xml version="1.0" encoding="utf-8" ?>
<svg xmlns="http://www.w3.org/2000/svg" xmlns:xlink="http://www.w3.org/1999/xlink" width="150" height="150">
	<path fill="#00B0FF" transform="scale(0.292969 0.292969)" d="M114.368 309.762C120.647 310.125 136.877 308.336 141.477 311.61C144.997 314.115 145.346 319.634 142.707 322.915C136.915 330.116 115.774 320.2 109.705 328.507L109.488 328.809C109.051 335.64 109.477 342.775 109.488 349.641C115.969 350.183 134.794 347.8 139.294 351.787C142.117 354.288 142.712 359.33 139.989 362.12C136.385 365.814 129.661 364.79 125.035 364.78L109.488 364.755L109.456 378.829C109.398 386.616 107.3 391.58 116.437 392.742C121.161 392.857 137.111 391.695 140.608 393.507C147.028 396.834 144.444 406.285 137.901 407.631C134.495 408.331 109.964 408.067 106.324 407.445C90.6821 404.774 91.0234 393.36 91.0192 381.501L91.0208 339.426C90.8792 317.33 91.5293 313.67 114.368 309.762Z"/>
	<path fill="#00B0FF" transform="scale(0.292969 0.292969)" d="M371.515 309.249C383.007 309.178 381.214 321.314 381.215 329.232L381.2 346.968C385.869 341.311 392.739 329.105 396.959 322.529C401.17 315.966 405.315 305.744 415.098 309.953C424.615 314.047 418.431 322.607 414.842 327.579L404.312 342.372C402.201 345.349 399.706 348.163 398.279 351.56C402.093 360.577 408.306 372.08 412.96 380.7C416.537 387.324 422.764 394.232 420.82 401.738C417.956 408.778 409.214 410.992 404.096 404.565C398.057 396.981 391.296 375.265 385.592 365.088L385.404 364.755C377.591 376.446 384.139 387.141 381.474 399.996C378.926 412.295 363.137 410.831 362.161 398.409C361.873 394.747 362.254 390.782 362.257 387.084L362.241 332.414C362.239 324.341 359.73 309.889 371.515 309.249Z"/>
	<path fill="#00B0FF" transform="scale(0.292969 0.292969)" d="M160.922 309.762C168.72 309.551 179.325 309.102 186.917 310.163C209.685 313.347 220.591 339.851 199.146 355.204C215.421 363.407 217.144 385.642 206.125 398.583C198.412 407.792 188.44 407.847 177.612 407.916C153.434 408.072 152.723 406.708 152.728 385.431L152.731 334.223C152.733 325.606 150.249 312.783 160.922 309.762ZM170.743 363.481L170.743 393.376C177.595 393.423 185.402 394.619 190.983 389.824C195.835 383.497 195.977 371.117 189.022 366.095C184.084 362.529 176.507 363.448 170.743 363.481ZM170.743 324.477L170.743 349.641C177.985 349.648 181.648 350.341 188.424 346.968C192.533 340.907 194.509 331.203 187.353 326.51C182.908 323.595 175.903 324.281 170.743 324.477Z"/>
	<path fill="#00B0FF" transform="scale(0.292969 0.292969)" d="M247.452 309.249C255.892 308.509 263.39 310.121 270.126 315.416C283.712 326.095 281.573 343.289 281.562 358.626C281.545 381.005 282.795 405.253 253.812 408.487C245.063 409.053 236.053 407.245 229.37 401.27C217.195 390.384 220.125 373.993 220.105 359.34C220.094 351.51 219.316 337.041 220.972 330.108C223.833 318.13 235.388 309.78 247.452 309.249ZM249.263 324.477C237.642 325.572 237.985 335.996 237.974 345.047L237.97 359.119C237.975 370.85 233.392 394.267 251.358 392.742C266.63 389.972 262.902 369.902 262.904 358.638C262.906 346.491 267.088 324.441 249.263 324.477Z"/>
	<path fill="#00B0FF" transform="scale(0.292969 0.292969)" d="M318.371 309.249C335.354 307.657 350.373 318.323 352.166 335.801C352.911 343.066 352.36 352.121 352.365 359.551L352.406 372.489C352.531 391.42 345.864 406.273 324.087 408.487C288.482 409.249 290.538 384.165 290.499 356.685C290.481 343.754 288.478 328.954 298.129 318.656C303.322 313.114 310.756 309.455 318.371 309.249ZM321.719 324.477C309.832 325.544 309.257 334.277 309.248 344.394L309.25 371.522C309.263 380.996 308.659 394.464 321.719 393.376C337.471 393.156 333.402 370.283 333.405 359.626L333.411 345.015C333.433 335.725 333.408 325.637 321.719 324.477Z"/>
	<path fill="#3498DB" transform="scale(0.292969 0.292969)" d="M324.087 102.738L336.348 102.646C346.015 102.561 355.241 103.517 362.43 110.659C370.09 118.267 368.562 128.008 368.546 137.898L368.659 261.009C368.723 273.724 360.777 285.862 347.644 287.838C342.119 288.668 335.841 288.137 330.245 288.137L173.687 288.127C167.756 287.769 162.292 288.31 156.777 285.554C138.839 276.589 143.235 254.097 143.234 237.278L143.246 145.01C143.221 128.992 140.151 110.647 160.176 104.37C182.656 97.3234 236.139 107.702 255.793 117.965C260.426 116.496 264.726 113.677 269.367 112.034C286.827 105.855 305.577 102.793 324.087 102.738ZM262.888 248.495C258.347 248.558 253.804 248.51 249.263 248.495L249.275 165.438C249.287 156.704 249.879 147.441 243.127 140.747C230.263 127.993 186.078 126.911 168.474 126.966L168.474 262.004L343.851 262.004C344.199 248.561 343.851 235.015 343.85 221.559L343.851 140.625L343.851 126.966C326.379 126.654 282.283 127.731 269.261 140.181C259.774 149.25 262.889 175.403 262.889 188.04L262.888 248.495Z"/>
</svg>
